<svg xmlns="http://www.w3.org/2000/svg" viewBox="0 0 82.39 113.32"><defs><style>.cls-1{fill:#2475a4;}</style></defs><g id="Layer_2" data-name="Layer 2"><g id="Layer_1-2" data-name="Layer 1"><path class="cls-1" d="M72.67,113.32H9.51V73H72.67Z"/><path class="cls-1" d="M2.16,69.37V65.3H7c.82-4.63,1.46-9,2.39-13.25,1.07-4.92,3.9-9,7.38-12.42,1.27-1.27,3.31-1.88,5.11-2.44A2.52,2.52,0,0,1,24,38.4a2.69,2.69,0,0,1-.81,2.41,45.1,45.1,0,0,1-4,2.07c-1.32.76-2.9,1.46-3.71,2.63-4,5.81-4.9,12.52-5.24,19.54h19.2V45.42l-6.65-1.61c.82-.58,1.3-.91,1.76-1.26A4.25,4.25,0,0,0,25.75,37a4,4,0,0,0-5.14-1.79c-2.06.85-4,1.89-6.26,2.94A58.33,58.33,0,0,1,.43,19c-1.23-2.67.3-5.79,3-7s5.57-.19,7.28,2.43c2.62,4,5.12,8.14,8.09,11.89a31.52,31.52,0,0,0,6.8,6,8.4,8.4,0,0,0,9.32.4c.21-.12.42-.24.64-.34,5-2.42,5-2.42,9,1.2a1.23,1.23,0,0,0,.39-.16c3.93-3.71,4-3.84,8.61-.93a69.57,69.57,0,0,1,9.86,7.23c7.28,6.74,10.49,15.15,9,25.44h9.89v4.21Zm42.78-6.44c1.11-2,3.2-4,3-5.77-.69-7.3-2.06-14.54-3.26-22.32a23.76,23.76,0,0,0-.61,2.31C43.26,42.77,42.7,48.45,41.5,54,40.68,57.78,42.2,60.23,44.94,62.93ZM59.8,54V65.37C62,63.59,61.87,57.27,59.8,54Z"/><path class="cls-1" d="M44.65,29.19A14.55,14.55,0,0,1,30,14.52,14.46,14.46,0,0,1,44.73,0a14.6,14.6,0,1,1-.08,29.19Z"/></g></g></svg>