<svg xmlns="http://www.w3.org/2000/svg" viewBox="0 0 113.33 110.68"><defs><style>.cls-1{fill:#2475a4;}</style></defs><g id="Layer_2" data-name="Layer 2"><g id="Layer_1-2" data-name="Layer 1"><path class="cls-1" d="M28.37,98.82c7.48-7.68,21.57-7.21,28.06-.08,9.24-7.22,18.62-7.72,28.18.07a18.22,18.22,0,0,1,15.78-5.44,33.1,33.1,0,0,1,7.22,1.69c4.62,1.67,5.56,5.73,5.65,10,.12,6.37.69,5.61-5.2,5.61l-102.75,0c-5.21,0-5.21,0-5.31-5C-.15,98,3.76,93.91,11.67,93.31,18,92.84,23.55,94.39,28.37,98.82Z"/><path class="cls-1" d="M25.39,61.78c-3,0-6,.14-9-.1-.81-.06-2.2-1.27-2.19-1.94A49.63,49.63,0,0,1,15,50.22c1.1-5.29,4.4-8,9.78-8.54,2.79-.27,5.59-.49,8.39-.52a15.86,15.86,0,0,0,9.62-3.6c4.47-3.38,8.89-6.85,13.51-10,3.08-2.11,4.94-4.51,4.52-8.42-.09-.83.7-1.75,1.09-2.63a23.14,23.14,0,0,1,1,2.51c.6,2.38.74,5,1.77,7.13,1.29,2.69.52,4.36-1.56,5.91C56.39,37,49.84,42.12,43,46.83c-3.86,2.65-5.76,5.76-5.43,10.5.3,4.17-.17,4.43-4.37,4.44C30.6,61.79,28,61.78,25.39,61.78Z"/><path class="cls-1" d="M45.2,29.79c0-9,0-17.47,0-25.95,0-2.45.41-3.86,3.41-3.84Q72.93.21,97.27.05c2.81,0,3.55.88,3.52,3.61-.14,12.32-.08,24.63,0,36.94,0,1.93-.14,3.26-2.65,3.25-13.92-.09-27.85-.06-41.77-.08a6.78,6.78,0,0,1-1.11-.25,9.15,9.15,0,0,1,6.93-3.11c10.32.06,20.64,0,31,0,3.87,0,4.32-.47,4.33-4.34q0-14.42,0-28.83C97.44,3.8,96.73,3,93.23,3q-20,0-39.94,0c-4,0-4.75.83-4.7,4.8.06,5.4.24,10.8.27,16.2C48.88,26.44,48.59,28.81,45.2,29.79Z"/><path class="cls-1" d="M70.91,67.47A10.31,10.31,0,0,1,81.49,77.71,10.66,10.66,0,1,1,70.91,67.47Z"/><path class="cls-1" d="M37.62,27.81A10.33,10.33,0,0,1,27.25,38.32a10.6,10.6,0,0,1,.2-21.2A10.21,10.21,0,0,1,37.62,27.81Z"/><path class="cls-1" d="M98.84,67.47c6.1,0,10.48,4.21,10.51,10.21A10.09,10.09,0,0,1,99.11,88.23a10.27,10.27,0,0,1-10.7-10.15A10,10,0,0,1,98.84,67.47Z"/><path class="cls-1" d="M15,67.46c6.08,0,10.21,4.29,10.15,10.49A9.94,9.94,0,0,1,14.7,88.23,10.38,10.38,0,0,1,4.21,77.52C4.29,71.79,9,67.43,15,67.46Z"/><path class="cls-1" d="M53.26,78.07c0,5.87-4.53,10.19-10.61,10.16-5.92,0-10.24-4.46-10.22-10.52s4.34-10.29,10.42-10.26S53.29,71.78,53.26,78.07Z"/></g></g></svg>