<svg width="134" height="38" viewBox="0 0 134 38" fill="none" xmlns="http://www.w3.org/2000/svg">
<path d="M78.1 16.7L75.6 12.4L70.6 3.9L68.3 0L65.5 3.5L64 5.3L59.5 10.8C58.7 11.8 57.6 12.4 56.2 12.4C53.9 12.4 52.1 10.6 52.1 8.3C52.1 6 53.9 4.2 56.2 4.2C58.5 4.2 60.3 6 60.3 8.3C60.3 8.5 60.3 8.7 60.3 8.9L63.7 4.7C62.4 1.9 59.6 0 56.3 0C51.7 0 48 3.7 48 8.3C48 12.9 51.7 16.7 56.3 16.7C59 16.7 61.3 15.4 62.8 13.4L67.8 7.3L70.8 12.3L70.9 12.4H64.3C64.3 12.4 64.3 12.4 64.3 12.5C64.5 13 65.3 16.4 69.6 16.6H74H78.1V16.7Z" fill="#F7FBFD"/>
<path d="M3.73092 27.8643C3.73092 28.4655 3.80165 29.0078 3.94311 29.4911C4.09635 29.9744 4.30854 30.3929 4.57966 30.7465C4.86258 31.0883 5.20443 31.3536 5.60523 31.5422C6.00602 31.7308 6.46575 31.8251 6.98443 31.8251C7.49132 31.8251 7.94516 31.7308 8.34595 31.5422C8.75853 31.3536 9.10039 31.0883 9.37151 30.7465C9.65443 30.3929 9.86661 29.9744 10.0081 29.4911C10.1613 29.0078 10.2379 28.4655 10.2379 27.8643C10.2379 27.2631 10.1613 26.7209 10.0081 26.2376C9.86661 25.7425 9.65443 25.324 9.37151 24.9821C9.10039 24.6285 8.75853 24.3574 8.34595 24.1688C7.94516 23.9801 7.49132 23.8858 6.98443 23.8858C6.46575 23.8858 6.00602 23.986 5.60523 24.1864C5.20443 24.375 4.86258 24.6462 4.57966 24.9998C4.30854 25.3417 4.09635 25.7601 3.94311 26.2552C3.80165 26.7386 3.73092 27.2749 3.73092 27.8643ZM13.0848 27.8643C13.0848 28.9134 12.9256 29.8388 12.6073 30.6404C12.3008 31.4302 11.8765 32.0962 11.3342 32.6385C10.792 33.1689 10.1436 33.5697 9.3892 33.8409C8.64655 34.112 7.84496 34.2475 6.98443 34.2475C6.14748 34.2475 5.35768 34.112 4.61503 33.8409C3.87238 33.5697 3.22404 33.1689 2.67 32.6385C2.11596 32.0962 1.6798 31.4302 1.36152 30.6404C1.04324 29.8388 0.884105 28.9134 0.884105 27.8643C0.884105 26.8152 1.04914 25.8957 1.3792 25.1059C1.70927 24.3043 2.15132 23.6324 2.70536 23.0901C3.27119 22.5479 3.91953 22.1412 4.65039 21.8701C5.39304 21.599 6.17105 21.4634 6.98443 21.4634C7.82138 21.4634 8.61118 21.599 9.35383 21.8701C10.0965 22.1412 10.7448 22.5479 11.2989 23.0901C11.8529 23.6324 12.2891 24.3043 12.6073 25.1059C12.9256 25.8957 13.0848 26.8152 13.0848 27.8643ZM14.7652 29.3496C14.7652 28.6777 14.8713 28.047 15.0835 27.4576C15.3075 26.8564 15.6258 26.3378 16.0384 25.9016C16.4509 25.4537 16.9519 25.1 17.5413 24.8407C18.1307 24.5813 18.8027 24.4517 19.5571 24.4517C20.0522 24.4517 20.506 24.4988 20.9186 24.5931C21.3312 24.6756 21.732 24.7994 22.121 24.9644L21.5729 27.0686C21.3253 26.9743 21.0542 26.8918 20.7595 26.8211C20.4648 26.7503 20.1347 26.715 19.7693 26.715C18.9913 26.715 18.4078 26.9566 18.0188 27.4399C17.6415 27.9233 17.4529 28.5598 17.4529 29.3496C17.4529 30.1866 17.6297 30.8349 17.9834 31.2946C18.3488 31.7544 18.9795 31.9842 19.8754 31.9842C20.1936 31.9842 20.5355 31.9548 20.9009 31.8958C21.2664 31.8369 21.6023 31.7426 21.9088 31.6129L22.2801 33.7701C21.9736 33.8998 21.5905 34.0118 21.1308 34.1061C20.6711 34.2004 20.1642 34.2475 19.6101 34.2475C18.7614 34.2475 18.0305 34.1238 17.4176 33.8762C16.8046 33.6169 16.2977 33.2691 15.8969 32.833C15.5079 32.3968 15.2191 31.884 15.0305 31.2946C14.8537 30.6934 14.7652 30.0451 14.7652 29.3496ZM23.1573 29.4203C23.1573 28.5952 23.2811 27.8761 23.5287 27.2631C23.788 26.6384 24.124 26.1197 24.5365 25.7071C24.9491 25.2945 25.4206 24.9821 25.9511 24.7699C26.4934 24.5578 27.0474 24.4517 27.6132 24.4517C28.9335 24.4517 29.9767 24.8584 30.743 25.6717C31.5092 26.4733 31.8923 27.658 31.8923 29.2258C31.8923 29.3791 31.8864 29.55 31.8746 29.7386C31.8628 29.9154 31.851 30.0746 31.8392 30.216H25.8627C25.9216 30.7583 26.1751 31.1885 26.623 31.5068C27.071 31.8251 27.6722 31.9842 28.4266 31.9842C28.9099 31.9842 29.3814 31.943 29.8412 31.8605C30.3127 31.7662 30.6958 31.6542 30.9905 31.5245L31.3441 33.664C31.2027 33.7348 31.0141 33.8055 30.7783 33.8762C30.5426 33.947 30.2773 34.0059 29.9826 34.053C29.6997 34.112 29.3932 34.1591 29.0632 34.1945C28.7331 34.2299 28.403 34.2475 28.073 34.2475C27.236 34.2475 26.5051 34.1238 25.8804 33.8762C25.2674 33.6287 24.7546 33.2927 24.342 32.8683C23.9412 32.4322 23.6406 31.9194 23.4402 31.33C23.2516 30.7406 23.1573 30.104 23.1573 29.4203ZM29.3461 28.4125C29.3343 28.1885 29.293 27.9704 29.2223 27.7582C29.1634 27.546 29.0632 27.3574 28.9217 27.1924C28.792 27.0274 28.6211 26.8918 28.4089 26.7857C28.2085 26.6796 27.9551 26.6266 27.6486 26.6266C27.3539 26.6266 27.1004 26.6796 26.8883 26.7857C26.6761 26.88 26.4993 27.0097 26.3578 27.1747C26.2163 27.3397 26.1044 27.5342 26.0218 27.7582C25.9511 27.9704 25.8981 28.1885 25.8627 28.4125H29.3461ZM37.4796 32.1611C37.7389 32.1611 37.9864 32.1552 38.2222 32.1434C38.458 32.1316 38.6466 32.1139 38.788 32.0903V30.0923C38.6819 30.0687 38.5228 30.0451 38.3106 30.0215C38.0984 29.998 37.9039 29.9862 37.7271 29.9862C37.4796 29.9862 37.2438 30.0038 37.0198 30.0392C36.8076 30.0628 36.619 30.1158 36.454 30.1983C36.289 30.2809 36.1593 30.3929 36.065 30.5343C35.9707 30.6758 35.9235 30.8526 35.9235 31.0648C35.9235 31.4774 36.0591 31.7662 36.3302 31.9312C36.6131 32.0844 36.9962 32.1611 37.4796 32.1611ZM37.2674 24.4517C38.0454 24.4517 38.6937 24.5401 39.2124 24.7169C39.7311 24.8937 40.1437 25.1472 40.4502 25.4772C40.7684 25.8073 40.9924 26.2081 41.1221 26.6796C41.2517 27.1511 41.3166 27.6757 41.3166 28.2533V33.7348C40.9394 33.8173 40.4148 33.9116 39.7429 34.0177C39.0709 34.1356 38.2576 34.1945 37.3027 34.1945C36.7015 34.1945 36.1534 34.1415 35.6583 34.0354C35.175 33.9293 34.7565 33.7583 34.4029 33.5226C34.0492 33.275 33.7781 32.9568 33.5895 32.5677C33.4009 32.1787 33.3066 31.7013 33.3066 31.1355C33.3066 30.5932 33.4127 30.1335 33.6249 29.7563C33.8488 29.3791 34.1435 29.0785 34.509 28.8545C34.8744 28.6305 35.2929 28.4714 35.7644 28.3771C36.2359 28.271 36.7251 28.218 37.232 28.218C37.5739 28.218 37.8745 28.2356 38.1338 28.271C38.4049 28.2946 38.623 28.3299 38.788 28.3771V28.1295C38.788 27.6816 38.6525 27.3221 38.3813 27.0509C38.1102 26.7798 37.6387 26.6442 36.9668 26.6442C36.5188 26.6442 36.0768 26.6796 35.6406 26.7503C35.2045 26.8093 34.8272 26.8977 34.509 27.0156L34.173 24.8937C34.3263 24.8466 34.5149 24.7994 34.7388 24.7523C34.9746 24.6933 35.228 24.6462 35.4992 24.6108C35.7703 24.5637 36.0532 24.5283 36.3479 24.5047C36.6544 24.4693 36.9609 24.4517 37.2674 24.4517ZM43.699 25.0175C44.1469 24.8878 44.7245 24.7699 45.4318 24.6639C46.1391 24.546 46.8817 24.487 47.6598 24.487C48.4496 24.487 49.1038 24.5931 49.6225 24.8053C50.1529 25.0057 50.5714 25.2945 50.8779 25.6717C51.1844 26.0489 51.4025 26.4969 51.5321 27.0156C51.6618 27.5342 51.7266 28.1119 51.7266 28.7484V34H49.092V29.0667C49.092 28.218 48.98 27.6168 48.756 27.2631C48.5321 26.9095 48.1136 26.7327 47.5006 26.7327C47.312 26.7327 47.1116 26.7444 46.8994 26.768C46.6872 26.7798 46.4986 26.7975 46.3336 26.8211V34H43.699V25.0175ZM66.7405 34C66.6109 33.5756 66.4635 33.1395 66.2985 32.6915C66.1452 32.2436 65.992 31.7956 65.8387 31.3477H61.0646C60.9113 31.7956 60.7522 32.2436 60.5872 32.6915C60.4339 33.1395 60.2925 33.5756 60.1628 34H57.2983C57.758 32.6797 58.1942 31.4597 58.6068 30.3398C59.0194 29.2199 59.4201 28.1649 59.8092 27.1747C60.2099 26.1845 60.599 25.2474 60.9762 24.3633C61.3652 23.4674 61.766 22.595 62.1786 21.7463H64.8132C65.214 22.595 65.6089 23.4674 65.9979 24.3633C66.3869 25.2474 66.7759 26.1845 67.1649 27.1747C67.5657 28.1649 67.9724 29.2199 68.385 30.3398C68.7976 31.4597 69.2337 32.6797 69.6934 34H66.7405ZM63.434 24.5224C63.375 24.6992 63.2866 24.9409 63.1687 25.2474C63.0509 25.5538 62.9153 25.9075 62.7621 26.3083C62.6088 26.7091 62.4379 27.1511 62.2493 27.6344C62.0725 28.1178 61.8897 28.6246 61.7011 29.1551H65.1845C64.9959 28.6246 64.8132 28.1178 64.6364 27.6344C64.4595 27.1511 64.2886 26.7091 64.1236 26.3083C63.9703 25.9075 63.8348 25.5538 63.7169 25.2474C63.599 24.9409 63.5047 24.6992 63.434 24.5224ZM70.4708 29.3496C70.4708 28.6777 70.5769 28.047 70.789 27.4576C71.013 26.8564 71.3313 26.3378 71.7439 25.9016C72.1565 25.4537 72.6575 25.1 73.2469 24.8407C73.8363 24.5813 74.5082 24.4517 75.2626 24.4517C75.7577 24.4517 76.2116 24.4988 76.6241 24.5931C77.0367 24.6756 77.4375 24.7994 77.8265 24.9644L77.2784 27.0686C77.0308 26.9743 76.7597 26.8918 76.465 26.8211C76.1703 26.7503 75.8402 26.715 75.4748 26.715C74.6968 26.715 74.1133 26.9566 73.7243 27.4399C73.3471 27.9233 73.1584 28.5598 73.1584 29.3496C73.1584 30.1866 73.3353 30.8349 73.6889 31.2946C74.0543 31.7544 74.685 31.9842 75.5809 31.9842C75.8992 31.9842 76.241 31.9548 76.6065 31.8958C76.9719 31.8369 77.3078 31.7426 77.6143 31.6129L77.9857 33.7701C77.6792 33.8998 77.2961 34.0118 76.8363 34.1061C76.3766 34.2004 75.8697 34.2475 75.3157 34.2475C74.4669 34.2475 73.7361 34.1238 73.1231 33.8762C72.5101 33.6169 72.0032 33.2691 71.6024 32.833C71.2134 32.3968 70.9246 31.884 70.736 31.2946C70.5592 30.6934 70.4708 30.0451 70.4708 29.3496ZM82.859 32.1611C83.1183 32.1611 83.3659 32.1552 83.6017 32.1434C83.8374 32.1316 84.026 32.1139 84.1675 32.0903V30.0923C84.0614 30.0687 83.9023 30.0451 83.6901 30.0215C83.4779 29.998 83.2834 29.9862 83.1066 29.9862C82.859 29.9862 82.6232 30.0038 82.3993 30.0392C82.1871 30.0628 81.9985 30.1158 81.8334 30.1983C81.6684 30.2809 81.5387 30.3929 81.4444 30.5343C81.3501 30.6758 81.303 30.8526 81.303 31.0648C81.303 31.4774 81.4385 31.7662 81.7097 31.9312C81.9926 32.0844 82.3757 32.1611 82.859 32.1611ZM82.6468 24.4517C83.4248 24.4517 84.0732 24.5401 84.5919 24.7169C85.1105 24.8937 85.5231 25.1472 85.8296 25.4772C86.1479 25.8073 86.3719 26.2081 86.5015 26.6796C86.6312 27.1511 86.696 27.6757 86.696 28.2533V33.7348C86.3188 33.8173 85.7942 33.9116 85.1223 34.0177C84.4504 34.1356 83.637 34.1945 82.6822 34.1945C82.081 34.1945 81.5329 34.1415 81.0378 34.0354C80.5544 33.9293 80.136 33.7583 79.7823 33.5226C79.4287 33.275 79.1576 32.9568 78.9689 32.5677C78.7803 32.1787 78.686 31.7013 78.686 31.1355C78.686 30.5932 78.7921 30.1335 79.0043 29.7563C79.2283 29.3791 79.523 29.0785 79.8884 28.8545C80.2538 28.6305 80.6723 28.4714 81.1438 28.3771C81.6154 28.271 82.1046 28.218 82.6115 28.218C82.9533 28.218 83.2539 28.2356 83.5132 28.271C83.7844 28.2946 84.0025 28.3299 84.1675 28.3771V28.1295C84.1675 27.6816 84.0319 27.3221 83.7608 27.0509C83.4897 26.7798 83.0182 26.6442 82.3462 26.6442C81.8983 26.6442 81.4562 26.6796 81.0201 26.7503C80.5839 26.8093 80.2067 26.8977 79.8884 27.0156L79.5525 24.8937C79.7057 24.8466 79.8943 24.7994 80.1183 24.7523C80.354 24.6933 80.6075 24.6462 80.8786 24.6108C81.1497 24.5637 81.4327 24.5283 81.7274 24.5047C82.0338 24.4693 82.3403 24.4517 82.6468 24.4517ZM91.324 29.2789C91.324 30.0923 91.5068 30.7465 91.8722 31.2416C92.2376 31.7367 92.7799 31.9842 93.4989 31.9842C93.7347 31.9842 93.9528 31.9783 94.1532 31.9666C94.3536 31.943 94.5186 31.9194 94.6483 31.8958V27.104C94.4832 26.9979 94.2652 26.9095 93.994 26.8387C93.7347 26.768 93.4695 26.7327 93.1983 26.7327C91.9488 26.7327 91.324 27.5814 91.324 29.2789ZM97.2829 33.6994C97.0471 33.7701 96.776 33.8409 96.4695 33.9116C96.163 33.9705 95.8389 34.0236 95.497 34.0707C95.167 34.1179 94.8251 34.1532 94.4715 34.1768C94.1296 34.2122 93.7995 34.2299 93.4813 34.2299C92.715 34.2299 92.0313 34.1179 91.4301 33.8939C90.8289 33.6699 90.3221 33.3517 89.9095 32.9391C89.4969 32.5147 89.1786 32.0078 88.9546 31.4184C88.7425 30.8172 88.6364 30.1453 88.6364 29.4027C88.6364 28.6482 88.7307 27.9704 88.9193 27.3692C89.1079 26.7562 89.379 26.2376 89.7327 25.8132C90.0863 25.3888 90.5166 25.0646 91.0234 24.8407C91.5421 24.6167 92.1315 24.5047 92.7917 24.5047C93.1571 24.5047 93.4813 24.5401 93.7642 24.6108C94.0589 24.6815 94.3536 24.7817 94.6483 24.9114V20.7031L97.2829 20.2787V33.6994ZM99.3078 29.4203C99.3078 28.5952 99.4316 27.8761 99.6791 27.2631C99.9384 26.6384 100.274 26.1197 100.687 25.7071C101.1 25.2945 101.571 24.9821 102.102 24.7699C102.644 24.5578 103.198 24.4517 103.764 24.4517C105.084 24.4517 106.127 24.8584 106.893 25.6717C107.66 26.4733 108.043 27.658 108.043 29.2258C108.043 29.3791 108.037 29.55 108.025 29.7386C108.013 29.9154 108.001 30.0746 107.99 30.216H102.013C102.072 30.7583 102.326 31.1885 102.773 31.5068C103.221 31.8251 103.823 31.9842 104.577 31.9842C105.06 31.9842 105.532 31.943 105.992 31.8605C106.463 31.7662 106.846 31.6542 107.141 31.5245L107.495 33.664C107.353 33.7348 107.165 33.8055 106.929 33.8762C106.693 33.947 106.428 34.0059 106.133 34.053C105.85 34.112 105.544 34.1591 105.214 34.1945C104.884 34.2299 104.553 34.2475 104.223 34.2475C103.386 34.2475 102.656 34.1238 102.031 33.8762C101.418 33.6287 100.905 33.2927 100.492 32.8683C100.092 32.4322 99.7911 31.9194 99.5907 31.33C99.4021 30.7406 99.3078 30.104 99.3078 29.4203ZM105.497 28.4125C105.485 28.1885 105.443 27.9704 105.373 27.7582C105.314 27.546 105.214 27.3574 105.072 27.1924C104.942 27.0274 104.772 26.8918 104.559 26.7857C104.359 26.6796 104.106 26.6266 103.799 26.6266C103.504 26.6266 103.251 26.6796 103.039 26.7857C102.827 26.88 102.65 27.0097 102.508 27.1747C102.367 27.3397 102.255 27.5342 102.172 27.7582C102.102 27.9704 102.049 28.1885 102.013 28.4125H105.497ZM115.186 29.0667C115.186 28.218 115.074 27.6168 114.85 27.2631C114.638 26.9095 114.267 26.7327 113.736 26.7327C113.571 26.7327 113.4 26.7444 113.223 26.768C113.047 26.7798 112.876 26.7975 112.711 26.8211V34H110.076V25.0175C110.3 24.9586 110.559 24.8996 110.854 24.8407C111.16 24.7699 111.479 24.711 111.809 24.6639C112.151 24.6049 112.498 24.5637 112.852 24.5401C113.206 24.5047 113.553 24.487 113.895 24.487C114.567 24.487 115.109 24.5754 115.522 24.7523C115.946 24.9173 116.294 25.1177 116.565 25.3535C116.942 25.0823 117.373 24.8701 117.856 24.7169C118.351 24.5637 118.805 24.487 119.218 24.487C119.96 24.487 120.567 24.5931 121.039 24.8053C121.522 25.0057 121.905 25.2945 122.188 25.6717C122.471 26.0489 122.666 26.4969 122.772 27.0156C122.878 27.5342 122.931 28.1119 122.931 28.7484V34H120.296V29.0667C120.296 28.218 120.184 27.6168 119.96 27.2631C119.748 26.9095 119.377 26.7327 118.846 26.7327C118.705 26.7327 118.504 26.768 118.245 26.8387C117.997 26.9095 117.791 26.9979 117.626 27.104C117.709 27.3751 117.762 27.6639 117.785 27.9704C117.809 28.2651 117.821 28.5834 117.821 28.9252V34H115.186V29.0667ZM133.305 24.6992C132.774 26.491 132.22 28.1708 131.642 29.7386C131.065 31.3064 130.434 32.8271 129.75 34.3006C129.503 34.8311 129.255 35.279 129.008 35.6444C128.76 36.0217 128.489 36.3281 128.194 36.5639C127.9 36.8115 127.564 36.9883 127.187 37.0944C126.821 37.2122 126.391 37.2712 125.896 37.2712C125.483 37.2712 125.1 37.2299 124.746 37.1474C124.405 37.0767 124.122 36.9942 123.898 36.8999L124.357 34.7957C124.629 34.89 124.87 34.9548 125.082 34.9902C125.295 35.0256 125.519 35.0432 125.754 35.0432C126.226 35.0432 126.585 34.9136 126.833 34.6542C127.092 34.4067 127.31 34.0589 127.487 33.611C126.886 32.4322 126.285 31.1119 125.684 29.6502C125.082 28.1767 124.517 26.5264 123.986 24.6992H126.78C126.898 25.1589 127.033 25.6599 127.187 26.2022C127.352 26.7327 127.522 27.2749 127.699 27.8289C127.876 28.3712 128.053 28.9017 128.23 29.4203C128.418 29.939 128.595 30.4105 128.76 30.8349C128.913 30.4105 129.073 29.939 129.238 29.4203C129.403 28.9017 129.562 28.3712 129.715 27.8289C129.88 27.2749 130.033 26.7327 130.175 26.2022C130.328 25.6599 130.464 25.1589 130.581 24.6992H133.305Z" fill="#F7FBFD"/>
</svg>
