<?xml version="1.0" encoding="utf-8"?>
<!-- Generator: Adobe Illustrator 24.3.0, SVG Export Plug-In . SVG Version: 6.00 Build 0)  -->
<svg version="1.1" id="Layer_1" xmlns="http://www.w3.org/2000/svg" xmlns:xlink="http://www.w3.org/1999/xlink" x="0px" y="0px"
	 viewBox="0 0 108.3 59.9" style="enable-background:new 0 0 108.3 59.9;" xml:space="preserve">
<style type="text/css">
	.st0{fill:#0a73be;}
</style>
<path class="st0" d="M108.3,59.9l-9.1-15.4L81.3,14L73.1,0.1L63,12.5L57.7,19l-16,19.6l0,0c-2.7,3.5-6.9,5.8-11.7,5.8
	c-8.1,0-14.7-6.6-14.7-14.7S21.7,15,29.9,15s14.7,6.6,14.7,14.7c0,0.8-0.1,1.5-0.2,2.3l12.3-15C51.9,7,41.7,0,29.8,0
	C13.4,0,0,13.3,0,29.8c0,16.4,13.4,30.1,29.8,30.1c9.5,0,18-4.6,23.4-11.7l0,0L71,26.4l10.6,18.1l0.2,0.4H58.1l0,0
	c0,0,0,0.1,0.1,0.2c0.6,1.8,3.5,13.9,19.1,14.8h15.9l0,0H108.3z"/>
</svg>
