<svg width="59" height="43" viewBox="0 0 59 43" fill="none" xmlns="http://www.w3.org/2000/svg">
<path d="M14.072 42.6638C9.37872 42.6638 5.88005 41.0851 3.57605 37.9278C1.35738 34.7705 0.248047 31.1011 0.248047 26.9198C0.248047 23.0798 1.05872 19.4105 2.68005 15.9118C4.38672 12.3278 6.56272 9.21316 9.20805 6.56782C11.9387 3.83716 14.8827 1.78916 18.04 0.423828L26.872 6.95183C23.3733 8.40249 20.216 10.3651 17.4 12.8398C14.6693 15.2291 12.7493 17.7891 11.64 20.5198L12.28 20.9038C12.792 20.5625 13.3467 20.3065 13.944 20.1358C14.6267 19.9651 15.5227 19.8798 16.632 19.8798C18.936 19.8798 21.1973 20.7331 23.416 22.4398C25.72 24.1465 26.872 26.7918 26.872 30.3758C26.872 34.3865 25.5493 37.4585 22.904 39.5918C20.344 41.6398 17.4 42.6638 14.072 42.6638ZM45.432 42.6638C40.7387 42.6638 37.24 41.0851 34.936 37.9278C32.7173 34.7705 31.608 31.1011 31.608 26.9198C31.608 23.0798 32.4187 19.4105 34.04 15.9118C35.7467 12.3278 37.9227 9.21316 40.568 6.56782C43.2987 3.83716 46.2427 1.78916 49.4 0.423828L58.232 6.95183C54.7333 8.40249 51.576 10.3651 48.76 12.8398C46.0293 15.2291 44.1093 17.7891 43 20.5198L43.64 20.9038C44.152 20.5625 44.7067 20.3065 45.304 20.1358C45.9867 19.9651 46.8827 19.8798 47.992 19.8798C50.296 19.8798 52.5573 20.7331 54.776 22.4398C57.08 24.1465 58.232 26.7918 58.232 30.3758C58.232 34.3865 56.9093 37.4585 54.264 39.5918C51.704 41.6398 48.76 42.6638 45.432 42.6638Z" fill="#00D1FF"/>
</svg>
